<svg xmlns="http://www.w3.org/2000/svg" viewBox="0 0 640 210" role="img" aria-label="KnockCoach logo">
  <g transform="translate(24,34) scale(1.25)">
    <path d="M8 12 L38 5 L38 84 L8 91 Z" fill="#16223e"/>
    <path d="M38 5 L44 8 L44 81 L38 84 Z" fill="#0f1830"/>
    <circle cx="31" cy="50" r="2.6" fill="#cfe0fb"/>
    <rect x="70" y="4" width="40" height="26" rx="9" fill="#cfe0fb"/>
    <path d="M80 28 l-7 10 l13 -6 Z" fill="#cfe0fb"/>
    <circle cx="82" cy="17" r="2.7" fill="#16223e"/><circle cx="90" cy="17" r="2.7" fill="#16223e"/><circle cx="98" cy="17" r="2.7" fill="#16223e"/>
    <path d="M62 30 l3 -8 M90 40 l9 -5 M93 55 l10 1 M88 69 l8 6" stroke="#2563EB" stroke-width="3" stroke-linecap="round" fill="none"/>
    <rect x="50" y="40" width="34" height="30" rx="14" fill="#2563EB"/>
    <circle cx="55" cy="40" r="9" fill="#2563EB"/>
    <rect x="44" y="49" width="12" height="14" rx="4" fill="#1d4ed8"/>
    <path d="M72 48 q5 7 0 14" stroke="#1d4ed8" stroke-width="3" fill="none" stroke-linecap="round"/>
  </g>
  <text x="196" y="118" font-family="Sora, Arial, sans-serif" font-weight="800" font-size="78" letter-spacing="-2">
    <tspan fill="#16223e">Knock</tspan><tspan fill="#2563EB">Coach</tspan>
  </text>
  <text x="198" y="152" font-family="Inter, Arial, sans-serif" font-weight="700" font-size="17" letter-spacing="2" fill="#5d6b8c">SELF SPARRING.&#160;&#160;|&#160;&#160;SHARPEN SKILLS.&#160;&#160;|&#160;&#160;WIN MORE.</text>
</svg>
